<svg width="246" height="141" viewBox="0 0 246 141" fill="none" xmlns="http://www.w3.org/2000/svg">
<path d="M124.618 12.0003C125.783 12.0346 126.912 12.2314 128.005 12.5911H128.114C128.188 12.6251 128.244 12.6627 128.281 12.6967C128.69 12.8237 129.076 12.9669 129.446 13.1637L130.149 13.4679C130.427 13.6111 130.76 13.8777 130.945 13.9868C131.13 14.0924 131.333 14.2016 131.5 14.3251C133.555 12.8058 136.051 11.9827 138.622 12.0003C139.79 12.0003 140.955 12.1598 142.063 12.5195C148.892 14.6668 151.352 21.9141 149.297 28.2487C148.131 31.4858 146.226 34.4402 143.73 36.8542C140.158 40.2004 136.238 43.1709 132.018 45.7298L131.555 46L131.074 45.7119C126.84 43.1709 122.897 40.2004 119.292 36.8363C116.813 34.4223 114.906 31.4858 113.722 28.2487C111.631 21.9141 114.092 14.6668 120.994 12.4819C121.53 12.303 122.083 12.1777 122.638 12.1079H122.86C123.38 12.0346 123.896 12.0003 124.414 12.0003H124.618ZM141.101 17.6552C140.343 17.4029 139.51 17.7984 139.233 18.5499C138.974 19.3015 139.381 20.1246 140.158 20.3913C141.344 20.8207 142.137 21.9499 142.137 23.2007V23.2562C142.102 23.6659 142.23 24.0614 142.489 24.3656C142.748 24.6698 143.136 24.847 143.543 24.8846C144.302 24.8649 144.949 24.2761 145.005 23.5228V23.3098C145.06 20.8028 143.49 18.532 141.101 17.6552Z" fill="#FF00C3"/>
<rect x="79.3562" y="35" width="102.288" height="100" fill="#5A00B5"/>
<path d="M103.273 84.9234L144.366 61.7331L144.164 108.483L103.273 84.9234Z" fill="#D9D9D9"/>
<rect x="70.2053" y="55.354" width="9.54305" height="7.07965" fill="#5A00B5"/>
<rect x="181.252" y="55.354" width="9.54305" height="7.07965" fill="#5A00B5"/>
<rect x="181.252" y="35" width="9.54305" height="9.73451" fill="#5A00B5"/>
<rect x="181.252" y="73.0531" width="9.54305" height="7.07965" fill="#5A00B5"/>
<rect x="181.252" y="90.7522" width="9.54305" height="7.07965" fill="#5A00B5"/>
<rect x="181.252" y="108.451" width="9.54305" height="7.07965" fill="#5A00B5"/>
<rect x="181.252" y="126.15" width="9.54305" height="8.84956" fill="#5A00B5"/>
<rect x="70.2053" y="35" width="9.54305" height="9.73451" fill="#5A00B5"/>
<rect x="70.2053" y="73.0531" width="9.54305" height="7.07965" fill="#5A00B5"/>
<rect x="70.2053" y="90.7522" width="9.54305" height="7.07965" fill="#5A00B5"/>
<rect x="70.2053" y="108.451" width="9.54305" height="7.07965" fill="#5A00B5"/>
<rect x="70.2053" y="126.15" width="9.54305" height="8.84956" fill="#5A00B5"/>
<path d="M65 38C65 36.3431 66.3431 35 68 35H70.2053V135H68C66.3431 135 65 133.657 65 132V38Z" fill="#5A00B5"/>
<path d="M190.795 35H193C194.657 35 196 36.3431 196 38V132C196 133.657 194.657 135 193 135H190.795V35Z" fill="#5A00B5"/>
<ellipse cx="65" cy="115" rx="23" ry="21" fill="#EDEDED"/>
<path d="M53.6733 122V108.182H55.3466V114.335H62.7145V108.182H64.3878V122H62.7145V115.82H55.3466V122H53.6733ZM72.002 122H67.7377V108.182H72.1909C73.5313 108.182 74.6783 108.458 75.6319 109.012C76.5855 109.56 77.3165 110.35 77.8248 111.38C78.333 112.406 78.5872 113.634 78.5872 115.064C78.5872 116.503 78.3308 117.743 77.818 118.782C77.3052 119.816 76.5585 120.612 75.5779 121.17C74.5974 121.723 73.4054 122 72.002 122ZM69.411 120.516H71.894C73.0365 120.516 73.9834 120.295 74.7346 119.854C75.4857 119.414 76.0458 118.786 76.4146 117.972C76.7834 117.158 76.9679 116.188 76.9679 115.064C76.9679 113.948 76.7857 112.988 76.4213 112.183C76.057 111.373 75.5127 110.752 74.7885 110.321C74.0643 109.884 73.1625 109.666 72.0829 109.666H69.411V120.516Z" fill="#FF00C3"/>
<path d="M46 23L58 23" stroke="#5A00B5" stroke-width="1.5" stroke-linecap="round"/>
<path d="M52 29L52 17" stroke="#5A00B5" stroke-width="1.5" stroke-linecap="round"/>
<path d="M14 88H26" stroke="white" stroke-width="1.5" stroke-linecap="round"/>
<path d="M14 88H26" stroke="white" stroke-width="1.5" stroke-linecap="round"/>
<path d="M14 88H26" stroke="white" stroke-width="1.5" stroke-linecap="round"/>
<path d="M20 94L20 82" stroke="white" stroke-width="1.5" stroke-linecap="round"/>
<path d="M20 94L20 82" stroke="white" stroke-width="1.5" stroke-linecap="round"/>
<path d="M20 94L20 82" stroke="white" stroke-width="1.5" stroke-linecap="round"/>
<path d="M236 50.5L245 50.5" stroke="white" stroke-width="1.5" stroke-linecap="round"/>
<path d="M236 50.5L245 50.5" stroke="white" stroke-width="1.5" stroke-linecap="round"/>
<path d="M236 50.5L245 50.5" stroke="#FF00C3" stroke-width="1.5" stroke-linecap="round"/>
<path d="M240.5 55L240.5 46" stroke="white" stroke-width="1.5" stroke-linecap="round"/>
<path d="M240.5 55L240.5 46" stroke="white" stroke-width="1.5" stroke-linecap="round"/>
<path d="M240.5 55L240.5 46" stroke="#FF00C3" stroke-width="1.5" stroke-linecap="round"/>
<circle cx="103" cy="6" r="5" stroke="#5A00B5" stroke-width="2"/>
<path d="M217.031 120.17L227.588 111.391L227.541 129.006L217.031 120.17Z" fill="#5A00B5"/>
<line x1="216" y1="120" x2="224" y2="120" stroke="#5A00B5" stroke-width="8"/>
<mask id="path-29-inside-1_205_109" fill="white">
<path d="M230.944 125.922C232.395 124.235 233.203 122.093 233.223 119.888C233.243 117.682 232.473 115.558 231.052 113.903L229.902 114.903C231.089 116.286 231.733 118.061 231.717 119.905C231.7 121.748 231.024 123.538 229.812 124.949L230.944 125.922Z"/>
</mask>
<path d="M230.944 125.922C232.395 124.235 233.203 122.093 233.223 119.888C233.243 117.682 232.473 115.558 231.052 113.903L229.902 114.903C231.089 116.286 231.733 118.061 231.717 119.905C231.7 121.748 231.024 123.538 229.812 124.949L230.944 125.922Z" stroke="#5A00B5" stroke-width="2" mask="url(#path-29-inside-1_205_109)"/>
<mask id="path-30-inside-2_205_109" fill="white">
<path d="M232.946 128.055C235.056 125.999 236.248 123.166 236.274 120.148C236.3 117.131 235.157 114.164 233.084 111.868L232.042 112.802C233.86 114.816 234.863 117.419 234.84 120.066C234.818 122.713 233.771 125.199 231.92 127.003L232.946 128.055Z"/>
</mask>
<path d="M232.946 128.055C235.056 125.999 236.248 123.166 236.274 120.148C236.3 117.131 235.157 114.164 233.084 111.868L232.042 112.802C233.86 114.816 234.863 117.419 234.84 120.066C234.818 122.713 233.771 125.199 231.92 127.003L232.946 128.055Z" stroke="#5A00B5" stroke-width="2" mask="url(#path-30-inside-2_205_109)"/>
<mask id="path-31-inside-3_205_109" fill="white">
<path d="M234.99 129.94C237.429 127.429 238.78 124.015 238.783 120.352C238.787 116.69 237.442 113.037 235.008 110.093L234.069 110.853C236.296 113.547 237.526 116.889 237.523 120.24C237.519 123.591 236.284 126.715 234.052 129.012L234.99 129.94Z"/>
</mask>
<path d="M234.99 129.94C237.429 127.429 238.78 124.015 238.783 120.352C238.787 116.69 237.442 113.037 235.008 110.093L234.069 110.853C236.296 113.547 237.526 116.889 237.523 120.24C237.519 123.591 236.284 126.715 234.052 129.012L234.99 129.94Z" stroke="#5A00B5" stroke-width="2" mask="url(#path-31-inside-3_205_109)"/>
<circle cx="32" cy="53" r="5" stroke="#FF00C3" stroke-width="2"/>
<circle cx="8.5" cy="131.5" r="7.5" stroke="#5A00B5" stroke-width="2"/>
<path d="M76.1919 26.7821C76.3872 26.9774 76.7038 26.9774 76.899 26.7821L80.081 23.6001C80.2763 23.4049 80.2763 23.0883 80.081 22.893C79.8857 22.6978 79.5692 22.6978 79.3739 22.893L76.5455 25.7215L73.717 22.893C73.5218 22.6978 73.2052 22.6978 73.0099 22.893C72.8147 23.0883 72.8147 23.4049 73.0099 23.6001L76.1919 26.7821ZM76.0455 17V26.4286H77.0455V17H76.0455Z" fill="#5A00B5"/>
<path d="M70 28.5714H83.0909" stroke="#5A00B5" stroke-linecap="round"/>
<line x1="83" y1="28.5" x2="83" y2="25.2143" stroke="#5A00B5" stroke-linecap="round"/>
<line x1="69.9091" y1="28.5" x2="69.9091" y2="25.2143" stroke="#5A00B5" stroke-linecap="round"/>
<circle cx="196" cy="34" r="17" fill="white"/>
<circle cx="196" cy="34" r="15.5" stroke="#5A00B5" stroke-width="3"/>
<circle cx="196" cy="34" r="9.5" stroke="#5A00B5" stroke-width="3"/>
<circle cx="196" cy="34" r="2.5" fill="#5A00B5" stroke="#5A00B5" stroke-width="3"/>
<line x1="196" y1="33.5" x2="206" y2="33.5" stroke="black"/>
<path d="M205.008 33.5167L207.251 32.2052L207.266 34.8032L205.008 33.5167Z" fill="#FF00C3"/>
<path d="M207 32H215L213 33.5L215 35H207V32Z" fill="#FF00C3"/>
</svg>
